<?xml version="1.0" encoding="UTF-8"?>
<!DOCTYPE svg PUBLIC "-//W3C//DTD SVG 1.1//EN" "http://www.w3.org/Graphics/SVG/1.1/DTD/svg11.dtd">
<svg xmlns="http://www.w3.org/2000/svg" version="1.1" width="32px" height="32px" style="shape-rendering:geometricPrecision; text-rendering:geometricPrecision; image-rendering:optimizeQuality; fill-rule:evenodd; clip-rule:evenodd" xmlns:xlink="http://www.w3.org/1999/xlink">
<g><path style="opacity:0.89" fill="#e13e3e" d="M 3.5,1.5 C 5.5,1.5 7.5,1.5 9.5,1.5C 9.91668,4.07917 9.25001,6.24583 7.5,8C 8.79323,8.49001 10.1266,8.65668 11.5,8.5C 11.5,13.1667 11.5,17.8333 11.5,22.5C 10.1266,22.3433 8.79323,22.51 7.5,23C 9.25001,24.7542 9.91668,26.9208 9.5,29.5C 7.5,29.5 5.5,29.5 3.5,29.5C 3.18535,25.6034 4.51868,22.4368 7.5,20C 6.64332,19.3109 5.97665,18.4776 5.5,17.5C 6.83333,16.1667 6.83333,14.8333 5.5,13.5C 5.97665,12.5224 6.64332,11.6891 7.5,11C 4.51868,8.56322 3.18535,5.39656 3.5,1.5 Z"/></g>
<g><path style="opacity:0.886" fill="#e13d3d" d="M 21.5,1.5 C 23.5,1.5 25.5,1.5 27.5,1.5C 27.8147,5.39656 26.4813,8.56322 23.5,11C 24.3567,11.6891 25.0233,12.5224 25.5,13.5C 24.1667,14.8333 24.1667,16.1667 25.5,17.5C 25.0233,18.4776 24.3567,19.3109 23.5,20C 26.4813,22.4368 27.8147,25.6034 27.5,29.5C 25.5,29.5 23.5,29.5 21.5,29.5C 21.0833,26.9208 21.75,24.7542 23.5,23C 22.2068,22.51 20.8734,22.3433 19.5,22.5C 19.5,17.8333 19.5,13.1667 19.5,8.5C 20.8734,8.65668 22.2068,8.49001 23.5,8C 21.75,6.24583 21.0833,4.07917 21.5,1.5 Z"/></g>
<g><path style="opacity:0.991" fill="#e03e3e" d="M 12.5,8.5 C 13.8048,10.3972 14.4714,12.7305 14.5,15.5C 14.1667,17.8333 13.8333,20.1667 13.5,22.5C 12.5067,17.8804 12.1734,13.2137 12.5,8.5 Z"/></g>
<g><path style="opacity:0.991" fill="#e03e3e" d="M 16.5,8.5 C 17.8048,10.3972 18.4714,12.7305 18.5,15.5C 18.1667,17.8333 17.8333,20.1667 17.5,22.5C 16.5067,17.8804 16.1734,13.2137 16.5,8.5 Z"/></g>
</svg>
